<!--?xml version="1.0" encoding="utf-8"?-->
<!-- Generator: Adobe Illustrator 15.1.0, SVG Export Plug-In . SVG Version: 6.00 Build 0)  -->

<svg version="1.1" id="_x32_" xmlns="http://www.w3.org/2000/svg" xmlns:xlink="http://www.w3.org/1999/xlink" x="0px" y="0px" width="1024px" height="1024px" viewBox="0 0 812 812" style="width: 1024px; height: 1024px; opacity: 1;" xml:space="preserve">
<g transform="translate(300,300)">
	<path class="st0" d="M368.109,22.422c-38.656,0-73.719,24.656-99.609,64.531c-54.031,36.672-137.688,66.406-153.875,66.406
		c-19.125,0-8.625-1.219-26.484-1.219C39.469,152.141,0,197.25,0,252.891c0,53.469,36.469,97.094,82.5,100.438l-1.563,92.25
		c-0.25,13.203,7.953,25.109,20.375,29.594l37.281,13.484c3.875,1.391,8.125,1.203,11.828-0.531l12.016-5.688
		c3.281-1.516,5.344-4.828,5.313-8.453l-0.844-106.219c31.781,12.188,71.344,30.531,101.594,51.078
		c25.891,39.859,60.953,64.531,99.609,64.531C447.469,483.375,512,379.984,512,252.891C512,125.828,447.469,22.422,368.109,22.422z
		 M375.391,428.438c-55.766,0-100.984-78.609-100.984-175.547S319.625,77.359,375.391,77.359s100.984,78.594,100.984,175.531
		S431.156,428.438,375.391,428.438z" fill="#e5554e"></path>
	<path class="st0" d="M364.344,200.438c-19.938,0-36.141,22-36.141,49.094c0,27.109,16.203,49.078,36.141,49.078
		c19.953,0,36.125-21.969,36.125-49.078C400.469,222.438,384.297,200.438,364.344,200.438z" fill="#e5554e"></path>
</g>
</svg>
